<svg xmlns="http://www.w3.org/2000/svg" viewBox="0 0 1200 675" role="img" aria-labelledby="title desc">
  <title id="title">RTK Aussois preview</title>
  <desc id="desc">Stylized preview card for the RTK Aussois Grafana monitoring resource.</desc>
  <defs>
    <linearGradient id="bg" x1="0%" y1="0%" x2="100%" y2="100%">
      <stop offset="0%" stop-color="#eff6ff" />
      <stop offset="100%" stop-color="#dbeafe" />
    </linearGradient>
  </defs>
  <rect width="1200" height="675" rx="32" fill="url(#bg)" />
  <circle cx="150" cy="110" r="110" fill="#ffffff" opacity="0.45" />
  <circle cx="1080" cy="540" r="150" fill="#ffffff" opacity="0.35" />
  <rect x="70" y="70" width="1060" height="535" rx="26" fill="#f8fbff" stroke="#bfd7ff" stroke-width="4" />
  <text x="110" y="155" font-family="Helvetica, Arial, sans-serif" font-size="34" font-weight="700" fill="#1d4ed8">RTK Aussois</text>
  <text x="110" y="198" font-family="Helvetica, Arial, sans-serif" font-size="22" fill="#1e40af">Monitoring GNSS via Grafana</text>
  <rect x="110" y="235" width="300" height="250" rx="18" fill="#ffffff" stroke="#cfe0ff" stroke-width="3" />
  <rect x="450" y="235" width="300" height="250" rx="18" fill="#ffffff" stroke="#cfe0ff" stroke-width="3" />
  <rect x="790" y="235" width="300" height="250" rx="18" fill="#ffffff" stroke="#cfe0ff" stroke-width="3" />
  <path d="M145 425 L190 390 L235 405 L280 350 L325 365 L370 290" fill="none" stroke="#2563eb" stroke-width="8" stroke-linecap="round" stroke-linejoin="round" />
  <path d="M485 430 L530 370 L575 375 L620 320 L665 335 L710 280" fill="none" stroke="#0f766e" stroke-width="8" stroke-linecap="round" stroke-linejoin="round" />
  <rect x="835" y="300" width="55" height="150" rx="10" fill="#60a5fa" />
  <rect x="915" y="255" width="55" height="195" rx="10" fill="#2563eb" />
  <rect x="995" y="340" width="55" height="110" rx="10" fill="#93c5fd" />
  <rect x="110" y="530" width="310" height="42" rx="21" fill="#1d4ed8" />
  <text x="265" y="558" text-anchor="middle" font-family="Helvetica, Arial, sans-serif" font-size="20" font-weight="700" fill="#eff6ff">Open Grafana dashboard</text>
  <text x="790" y="556" font-family="Helvetica, Arial, sans-serif" font-size="18" fill="#1e3a8a">Mode kiosk recommande pour la consultation</text>
</svg>
