<svg id="Calque_1" data-name="Calque 1" xmlns="http://www.w3.org/2000/svg" viewBox="0 0 843.29 843.03"><defs><style>.cls-1{fill:#00274c;}.cls-2{fill:#fff;}</style></defs><path class="cls-1" d="M408.64,10c46.46.14,102.22,13.23,156.07,35.07,67.12,27.23,129.12,63.51,184.8,109.75,53.27,44.25,88.25,100.44,102.79,168.66,9.4,44.12,8.67,88.35.18,132.48-15.24,79.23-51,148.81-100.77,211.58-42.86,54.07-93.52,99.35-153.52,133.8-45.74,26.26-94.67,43.3-147.12,49.35-81.93,9.46-157.12-9.84-224.2-57.18C133.18,727.42,70,638.79,40,527.83A721.58,721.58,0,0,1,16.31,380.16C12.34,310.45,32.08,248,74,192.34c40.56-53.92,87.77-100.62,146.5-134.72C274.9,26,333.63,10,408.64,10Zm-67,514.05c.1-2,.25-3.64.25-5.26V324.85A46.94,46.94,0,0,1,398.42,279c22.65,4.71,37.68,23.75,37.7,48q.08,95.22,0,190.44v7c8.56,0,16.51.08,24.46,0,9.85-.11,12.64-3,12.64-13,0-62.81.34-125.62-.14-188.43-.26-32.93-15.91-57.6-45.39-71.92-28.81-14-56.58-9.69-82.17,9.34-1,.74-2.07,1.35-3.85,2.49V249.53a6,6,0,0,0-1.43-.52c-7,0-14-.1-21-.11-12.09,0-14.71,2.59-14.71,14.59V509.91a38.87,38.87,0,0,0,.33,6.47c.7,4.23,3.34,7.38,7.5,7.57,9.64.42,19.26.13,29.24.13ZM133.23,383.67c1-12.44,1.5-24.93,3.06-37.3,2.1-16.62,6.21-32.75,16.11-46.72,11.41-16.09,27.44-22.28,46.58-20.18,18.34,2,29.69,13.35,35.84,30,2.51,6.79,3.45,14.15,5.31,21.21.39,1.49,1.65,3.92,2.55,3.93,9.64.15,19.32.26,28.93-.38,5.05-.34,7.82-4.23,7.53-9.49a98.36,98.36,0,0,0-2-16.31c-6.65-29.71-22.68-51.58-52.74-61a105.71,105.71,0,0,0-55.27-2c-29.86,6.63-48.74,25.87-60.3,53.25C100.12,319.27,96.67,340.91,95.4,363c-1.74,30-.55,59.9,7.6,89.11,5.87,20.89,15.38,39.79,32.56,53.83,19.35,15.82,42.15,19.7,66.26,18.13,51.58-3.38,74.37-39.29,77.3-79.85.56-7.8-3.19-11.39-11-11.44-7.5,0-15,.21-22.49-.09-4-.16-5.26,1.06-5.88,5.11a108.22,108.22,0,0,1-5,20.77c-14,38.5-58.34,35-76.32,16.48a68.81,68.81,0,0,1-15.27-24.93C135.42,428.66,134,406.28,133.23,383.67ZM639.32,462c-.58.47-1.23,1-1.85,1.53-4,3.51-8.08,7-12,10.55-6.29,5.76-7.42,10.87-2.06,17.48,5.49,6.78,11.58,13.51,18.66,18.48,20.19,14.16,43.26,16.49,67,13,38.5-5.68,74.21-33,71.09-83.2-1.42-22.72-10.11-41.82-29-54.94-10-7-21.19-12.42-32.15-18-13.34-6.74-27.34-12.25-40.44-19.4-12.57-6.8-17.82-18.5-16.92-32.67,1-16.06,8.51-28.22,23.76-33.89,19.15-7.13,37.64-5.25,54.34,7.39,3.39,2.57,6.49,5.53,9.85,8.42,4.15-3.77,8.14-7.3,12-10.94,8.57-8,8.71-14.17.42-22.42-12.91-12.86-29-18.63-46.73-20-27.45-2.1-52.18,4.36-72.32,24.3-27.24,27-30.27,86.57,16.19,112.47,12.46,6.95,25.74,12.41,38.53,18.8,9.65,4.82,19.44,9.49,28.59,15.16C748.61,428,749.21,472.8,717.41,485c-22.28,8.54-43.15,6.23-62.15-8.51C649.64,472.11,644.68,466.91,639.32,462ZM541.78,248.85c-10.29,0-20.08-.38-29.8.28-2.39.16-5.14,3.36-6.64,5.83-1.15,1.9-.77,4.84-.77,7.32V510.19a43.89,43.89,0,0,0,.16,5c.52,4.47,3,8,7.4,8.19,9.58.48,19.19.15,29.34.15V516.8c0-62.48-.1-124.95.14-187.43a65.93,65.93,0,0,1,3.21-21c8.4-24,34.6-36.42,58.79-28.3,3.57,1.2,5.65.9,7.85-2.35,3.08-4.53,6.8-8.62,10.2-13,6.73-8.59,4.56-16-5.83-18.84-25.28-7-48.4-2.22-69.42,13.29l-4.61,3.38Z" transform="translate(-15.81 -10)"/><path class="cls-2" d="M341.6,524.08c-10,0-19.61.29-29.21-.13-4.16-.19-6.8-3.34-7.5-7.57a38.87,38.87,0,0,1-.33-6.47V263.49c0-12,2.62-14.6,14.71-14.59,7,0,14,.06,21,.11a6,6,0,0,1,1.43.52v13.38c1.78-1.14,2.86-1.75,3.85-2.49,25.59-19,53.36-23.33,82.17-9.34,29.48,14.32,45.13,39,45.39,71.92.48,62.81.14,125.62.14,188.43,0,10-2.79,12.89-12.64,13-7.95.1-15.9,0-24.46,0V327c0-24.29-15-43.33-37.7-48a46.92,46.92,0,0,0-56.53,45.92q-.12,84,0,167.94v26C341.85,520.44,341.7,522.06,341.6,524.08Z" transform="translate(-15.81 -10)"/><path class="cls-2" d="M133.23,383.67c.74,22.61,2.19,45,10,66.45a68.81,68.81,0,0,0,15.27,24.93c18,18.48,62.32,22,76.32-16.48a108.22,108.22,0,0,0,5-20.77c.62-4.05,1.9-5.27,5.88-5.11,7.49.3,15,0,22.49.09,7.79.05,11.54,3.64,11,11.44-2.93,40.56-25.72,76.47-77.3,79.85-24.11,1.57-46.91-2.31-66.26-18.13-17.18-14-26.69-32.94-32.56-53.83C94.85,422.9,93.66,393,95.4,363c1.27-22,4.72-43.68,13.39-64.19,11.56-27.38,30.44-46.62,60.3-53.25a105.71,105.71,0,0,1,55.27,2c30.06,9.37,46.09,31.24,52.74,60.95a98.36,98.36,0,0,1,2,16.31c.29,5.26-2.48,9.15-7.53,9.49-9.61.64-19.29.53-28.93.38-.9,0-2.16-2.44-2.55-3.93-1.86-7.06-2.8-14.42-5.31-21.21-6.15-16.67-17.5-28-35.84-30-19.14-2.1-35.17,4.09-46.58,20.18-9.9,14-14,30.1-16.11,46.72C134.73,358.74,134.21,371.23,133.23,383.67Z" transform="translate(-15.81 -10)"/><path class="cls-2" d="M639.32,462c5.36,4.9,10.32,10.1,15.94,14.46,19,14.74,39.87,17,62.15,8.51,31.8-12.18,31.2-57,8.89-70.85-9.15-5.67-18.94-10.34-28.59-15.16-12.79-6.39-26.07-11.85-38.53-18.8-46.46-25.9-43.43-85.51-16.19-112.47,20.14-19.94,44.87-26.4,72.32-24.3,17.75,1.36,33.82,7.13,46.73,20,8.29,8.25,8.15,14.4-.42,22.42-3.88,3.64-7.87,7.17-12,10.94-3.36-2.89-6.46-5.85-9.85-8.42-16.7-12.64-35.19-14.52-54.34-7.39-15.25,5.67-22.73,17.83-23.76,33.89-.9,14.2,4.33,25.87,16.86,32.72,13.1,7.15,27.1,12.66,40.44,19.4,11,5.54,22.11,11,32.15,18,18.91,13.12,27.6,32.22,29,54.94,3.12,50.21-32.59,77.52-71.09,83.2-23.7,3.49-46.77,1.16-67-13-7.08-5-13.17-11.7-18.66-18.48-5.36-6.61-4.23-11.72,2.06-17.48,3.92-3.6,8-7,12-10.55C638.09,463,638.74,462.48,639.32,462Z" transform="translate(-15.81 -10)"/><path class="cls-2" d="M541.78,248.85v13.69l4.61-3.38c21-15.51,44.14-20.26,69.42-13.29,10.39,2.86,12.56,10.25,5.83,18.84-3.4,4.33-7.12,8.42-10.2,13-2.2,3.25-4.28,3.55-7.85,2.35-24.19-8.12-50.39,4.28-58.79,28.3a65.93,65.93,0,0,0-3.21,21c-.24,62.48-.14,125-.14,187.43v6.73c-10.15,0-19.76.33-29.34-.15-4.42-.22-6.88-3.72-7.4-8.19a43.89,43.89,0,0,1-.16-5V262.27c0-2.48-.38-5.42.77-7.32,1.5-2.47,4.25-5.67,6.64-5.83C521.7,248.47,531.49,248.85,541.78,248.85Z" transform="translate(-15.81 -10)"/></svg>